# xmcd CD database file
#
# Track frame offsets:
#	150
#	8311
#	16133
#	28504
#	43988
#	64591
#	78303
#	90100
#	110251
#	135950
#	156162
#	159592
#	184378
#	194260
#	207799
#	233281
#	245026
#
# Disc length: 3514 seconds
#
# Revision: 0
# Processed by: cddbd v1.5.2PL0 Copyright (c) Steve Scherf et al.
# Submitted via: CDex 1.70beta2
#
DISCID=c00db811
DTITLE=Jürg Sigrist - Pop Jazz Musical CD 1
DYEAR=1900
DGENRE=Jazz
TTITLE0=Wish you were here, Shine on you Crazy Diamond, Part I
TTITLE1=Wish you were here, Shine on you Crazy Diamond, Part II
TTITLE2=Wish you were here, Shine on you Crazy Diamond, Part III
TTITLE3=Wish you were here, Shine on you Crazy Diamond, Part IV
TTITLE4=Wish you were here, Shine on you Crazy Diamond, Part V
TTITLE5=The Wall, In the Flesh
TTITLE6=The Wall, The thin Ice
TTITLE7=The Wall, Another Brick in the Wall
TTITLE8=The Wall, Mother
TTITLE9=The Wall, Hey you
TTITLE10=The Wall, Bring the Boys back home
TTITLE11=The Wall, Comfortably Numb
TTITLE12=The Wall, The Show must go on
TTITLE13=The Wall, Outside the Wall
TTITLE14=Jesus Christ Superstar, I don't know how to love him
TTITLE15=Jesus Christ Superstar, The last supper
TTITLE16=Jesus Christ Superstar, Superstar
EXTD=
EXTT0=
EXTT1=
EXTT2=
EXTT3=
EXTT4=
EXTT5=
EXTT6=
EXTT7=
EXTT8=
EXTT9=
EXTT10=
EXTT11=
EXTT12=
EXTT13=
EXTT14=
EXTT15=
EXTT16=
PLAYORDER=
